<svg width="18.000000" height="18.000000" viewBox="0 0 18 18" fill="none" xmlns="http://www.w3.org/2000/svg" xmlns:xlink="http://www.w3.org/1999/xlink">
	<desc>
			Created with Pixso.
	</desc>
	<defs/>
	<path id="Vector" d="M11.42 9L17.47 2.94C17.64 2.78 17.77 2.59 17.86 2.38C17.95 2.17 17.99 1.95 18 1.72C18 1.5 17.95 1.27 17.87 1.06C17.78 0.85 17.65 0.66 17.49 0.5C17.33 0.34 17.14 0.21 16.93 0.12C16.72 0.04 16.5 -0.01 16.27 6.1e-5C16.04 0 15.82 0.04 15.61 0.13C15.4 0.22 15.21 0.35 15.05 0.52L8.99 6.57L2.94 0.52C2.78 0.35 2.59 0.22 2.38 0.13C2.17 0.04 1.95 0 1.72 6.1e-5C1.5 -0.01 1.27 0.04 1.06 0.12C0.85 0.21 0.66 0.34 0.5 0.5C0.34 0.66 0.21 0.85 0.12 1.06C0.04 1.27 -0.01 1.5 0 1.72C0 1.95 0.04 2.17 0.13 2.38C0.22 2.59 0.35 2.78 0.52 2.94L6.57 8.99L0.52 15.05C0.35 15.21 0.22 15.4 0.13 15.61C0.04 15.82 0 16.04 0 16.27C-0.01 16.49 0.04 16.72 0.12 16.93C0.21 17.14 0.34 17.33 0.5 17.49C0.66 17.65 0.85 17.78 1.06 17.87C1.27 17.95 1.5 18 1.72 17.99C1.95 17.99 2.17 17.95 2.38 17.86C2.59 17.77 2.78 17.64 2.94 17.47L8.99 11.42L15.05 17.47C15.21 17.64 15.4 17.77 15.61 17.86C15.82 17.95 16.04 17.99 16.27 17.99C16.5 18 16.72 17.95 16.93 17.87C17.14 17.78 17.33 17.65 17.49 17.49C17.65 17.33 17.78 17.14 17.87 16.93C17.95 16.72 18 16.49 18 16.27C17.99 16.04 17.95 15.82 17.86 15.61C17.77 15.4 17.64 15.21 17.47 15.05L11.42 8.99L11.42 9Z" fill="#EA0029" fill-opacity="1.000000" fill-rule="nonzero"/>
</svg>
